<svg 
width="822" 
height="280" 
viewBox="0 0 822 280" 
fill="none" 
xmlns="http://www.w3.org/2000/svg">
<path 
d="M132.2 11.08V123.4H104.84V56.04L79.72 123.4H57.64L32.36 55.88V123.4H5V11.08H37.32L68.84 88.84L100.04 11.08H132.2Z" 
stroke="white" 
stroke-width="5" 
mask="url(#path-1-outside-1_308_8)"/>
<path 
d="M236.035 77.32C236.035 79.88 235.875 82.5467 235.555 85.32H173.635C174.062 90.8667 175.822 95.1333 178.915 98.12C182.115 101 186.008 102.44 190.595 102.44C197.422 102.44 202.168 99.56 204.835 93.8H233.955C232.462 99.6667 229.742 104.947 225.795 109.64C221.955 114.333 217.102 118.013 211.235 120.68C205.368 123.347 198.808 124.68 191.555 124.68C182.808 124.68 175.022 122.813 168.195 119.08C161.368 115.347 156.035 110.013 152.195 103.08C148.355 96.1467 146.435 88.04 146.435 78.76C146.435 69.48 148.302 61.3733 152.035 54.44C155.875 47.5067 161.208 42.1733 168.035 38.44C174.862 34.7067 182.702 32.84 191.555 32.84C200.195 32.84 207.875 34.6533 214.595 38.28C221.315 41.9067 226.542 47.08 230.275 53.8C234.115 60.52 236.035 68.36 236.035 77.32ZM208.035 70.12C208.035 65.4267 206.435 61.6933 203.235 58.92C200.035 56.1467 196.035 54.76 191.235 54.76C186.648 54.76 182.755 56.0933 179.555 58.76C176.462 61.4267 174.542 65.2133 173.795 70.12H208.035Z" 
stroke="white" 
stroke-width="5" 
mask="url(#path-1-outside-1_308_8)"/>
<path 
d="M305.349 33.16C315.589 33.16 323.802 36.5733 329.989 43.4C336.175 50.12 339.269 59.4 339.269 71.24V123.4H312.069V74.92C312.069 68.9467 310.522 64.3067 307.429 61C304.335 57.6933 300.175 56.04 294.949 56.04C289.722 56.04 285.562 57.6933 282.469 61C279.375 64.3067 277.829 68.9467 277.829 74.92V123.4H250.469V5H277.829V46.12C280.602 42.1733 284.389 39.0267 289.189 36.68C293.989 34.3333 299.375 33.16 305.349 33.16Z" 
stroke="white" 
stroke-width="5" 
mask="url(#path-1-outside-1_308_8)"/>
<path 
d="M352.841 78.6C352.841 69.4267 354.548 61.3733 357.961 54.44C361.481 47.5067 366.228 42.1733 372.201 38.44C378.175 34.7067 384.841 32.84 392.201 32.84C398.068 32.84 403.401 34.0667 408.201 36.52C413.108 38.9733 416.948 42.28 419.721 46.44V5H447.081V123.4H419.721V110.6C417.161 114.867 413.481 118.28 408.681 120.84C403.988 123.4 398.495 124.68 392.201 124.68C384.841 124.68 378.175 122.813 372.201 119.08C366.228 115.24 361.481 109.853 357.961 102.92C354.548 95.88 352.841 87.7733 352.841 78.6ZM419.721 78.76C419.721 71.9333 417.801 66.5467 413.961 62.6C410.228 58.6533 405.641 56.68 400.201 56.68C394.761 56.68 390.121 58.6533 386.281 62.6C382.548 66.44 380.681 71.7733 380.681 78.6C380.681 85.4267 382.548 90.8667 386.281 94.92C390.121 98.8667 394.761 100.84 400.201 100.84C405.641 100.84 410.228 98.8667 413.961 94.92C417.801 90.9733 419.721 85.5867 419.721 78.76Z" 
stroke="white" 
stroke-width="5" 
mask="url(#path-1-outside-1_308_8)"/>
<path 
d="M558.075 34.12L502.075 165.8H472.635L493.115 120.36L456.795 34.12H487.355L507.995 89.96L528.475 34.12H558.075Z" 
stroke="white" 
stroke-width="5" 
mask="url(#path-1-outside-1_308_8)"/>
<path 
d="M102.28 161.08V273.4H74.92V227.16H32.36V273.4H5V161.08H32.36V205.08H74.92V161.08H102.28Z" 
stroke="white" 
stroke-width="5" 
mask="url(#path-1-outside-1_308_8)"/>
<path 
d="M206.191 227.32C206.191 229.88 206.031 232.547 205.711 235.32H143.791C144.218 240.867 145.978 245.133 149.071 248.12C152.271 251 156.165 252.44 160.751 252.44C167.578 252.44 172.325 249.56 174.991 243.8H204.111C202.618 249.667 199.898 254.947 195.951 259.64C192.111 264.333 187.258 268.013 181.391 270.68C175.525 273.347 168.965 274.68 161.711 274.68C152.965 274.68 145.178 272.813 138.351 269.08C131.525 265.347 126.191 260.013 122.351 253.08C118.511 246.147 116.591 238.04 116.591 228.76C116.591 219.48 118.458 211.373 122.191 204.44C126.031 197.507 131.365 192.173 138.191 188.44C145.018 184.707 152.858 182.84 161.711 182.84C170.351 182.84 178.031 184.653 184.751 188.28C191.471 191.907 196.698 197.08 200.431 203.8C204.271 210.52 206.191 218.36 206.191 227.32ZM178.191 220.12C178.191 215.427 176.591 211.693 173.391 208.92C170.191 206.147 166.191 204.76 161.391 204.76C156.805 204.76 152.911 206.093 149.711 208.76C146.618 211.427 144.698 215.213 143.951 220.12H178.191Z" 
stroke="white" 
stroke-width="5" 
mask="url(#path-1-outside-1_308_8)"/>
<path 
d="M247.985 199C251.185 194.093 255.185 190.253 259.985 187.48C264.785 184.6 270.118 183.16 275.985 183.16V212.12H268.465C261.638 212.12 256.518 213.613 253.105 216.6C249.692 219.48 247.985 224.6 247.985 231.96V273.4H220.625V184.12H247.985V199Z" 
stroke="white" 
stroke-width="5" 
mask="url(#path-1-outside-1_308_8)"/>
<path 
d="M338.822 250.2V273.4H324.902C314.982 273.4 307.249 271 301.702 266.2C296.156 261.293 293.382 253.347 293.382 242.36V206.84H282.502V184.12H293.382V162.36H320.742V184.12H338.662V206.84H320.742V242.68C320.742 245.347 321.382 247.267 322.662 248.44C323.942 249.613 326.076 250.2 329.062 250.2H338.822Z" 
stroke="white" 
stroke-width="5" 
mask="url(#path-1-outside-1_308_8)"/>
<path 
d="M438.222 227.32C438.222 229.88 438.062 232.547 437.742 235.32H375.822C376.249 240.867 378.009 245.133 381.102 248.12C384.302 251 388.196 252.44 392.783 252.44C399.609 252.44 404.356 249.56 407.022 243.8H436.142C434.649 249.667 431.929 254.947 427.982 259.64C424.142 264.333 419.289 268.013 413.422 270.68C407.556 273.347 400.996 274.68 393.742 274.68C384.996 274.68 377.209 272.813 370.382 269.08C363.556 265.347 358.222 260.013 354.382 253.08C350.542 246.147 348.622 238.04 348.622 228.76C348.622 219.48 350.489 211.373 354.222 204.44C358.062 197.507 363.396 192.173 370.222 188.44C377.049 184.707 384.889 182.84 393.742 182.84C402.382 182.84 410.063 184.653 416.783 188.28C423.503 191.907 428.729 197.08 432.462 203.8C436.302 210.52 438.222 218.36 438.222 227.32ZM410.223 220.12C410.223 215.427 408.622 211.693 405.422 208.92C402.222 206.147 398.222 204.76 393.422 204.76C388.836 204.76 384.942 206.093 381.742 208.76C378.649 211.427 376.729 215.213 375.982 220.12H410.223Z" 
stroke="white" 
stroke-width="5" 
mask="url(#path-1-outside-1_308_8)"/>
<path 
d="M480.016 199C483.216 194.093 487.216 190.253 492.016 187.48C496.816 184.6 502.15 183.16 508.016 183.16V212.12H500.496C493.67 212.12 488.55 213.613 485.136 216.6C481.723 219.48 480.016 224.6 480.016 231.96V273.4H452.656V184.12H480.016V199Z" 
stroke="white" 
stroke-width="5" 
mask="url(#path-1-outside-1_308_8)"/>
<path 
d="M605.254 227.32C605.254 229.88 605.094 232.547 604.774 235.32H542.854C543.28 240.867 545.04 245.133 548.134 248.12C551.334 251 555.227 252.44 559.814 252.44C566.64 252.44 571.387 249.56 574.054 243.8H603.174C601.68 249.667 598.96 254.947 595.014 259.64C591.174 264.333 586.32 268.013 580.454 270.68C574.587 273.347 568.027 274.68 560.774 274.68C552.027 274.68 544.24 272.813 537.414 269.08C530.587 265.347 525.254 260.013 521.414 253.08C517.574 246.147 515.654 238.04 515.654 228.76C515.654 219.48 517.52 211.373 521.254 204.44C525.094 197.507 530.427 192.173 537.254 188.44C544.08 184.707 551.92 182.84 560.774 182.84C569.414 182.84 577.094 184.653 583.814 188.28C590.534 191.907 595.76 197.08 599.494 203.8C603.334 210.52 605.254 218.36 605.254 227.32ZM577.254 220.12C577.254 215.427 575.654 211.693 572.454 208.92C569.254 206.147 565.254 204.76 560.454 204.76C555.867 204.76 551.974 206.093 548.774 208.76C545.68 211.427 543.76 215.213 543.014 220.12H577.254Z" 
stroke="white" 
stroke-width="5" 
mask="url(#path-1-outside-1_308_8)"/>
<path 
d="M614.247 228.6C614.247 219.427 615.954 211.373 619.367 204.44C622.887 197.507 627.634 192.173 633.608 188.44C639.581 184.707 646.248 182.84 653.608 182.84C659.901 182.84 665.394 184.12 670.088 186.68C674.888 189.24 678.568 192.6 681.128 196.76V184.12H708.488V273.4H681.128V260.76C678.461 264.92 674.727 268.28 669.927 270.84C665.234 273.4 659.741 274.68 653.448 274.68C646.194 274.68 639.581 272.813 633.608 269.08C627.634 265.24 622.887 259.853 619.367 252.92C615.954 245.88 614.247 237.773 614.247 228.6ZM681.128 228.76C681.128 221.933 679.207 216.547 675.367 212.6C671.634 208.653 667.048 206.68 661.608 206.68C656.168 206.68 651.527 208.653 647.688 212.6C643.954 216.44 642.088 221.773 642.088 228.6C642.088 235.427 643.954 240.867 647.688 244.92C651.527 248.867 656.168 250.84 661.608 250.84C667.048 250.84 671.634 248.867 675.367 244.92C679.207 240.973 681.128 235.587 681.128 228.76Z" 
stroke="white" 
stroke-width="5" 
mask="url(#path-1-outside-1_308_8)"/>
<path 
d="M816.441 184.12V273.4H789.081V261.24C786.308 265.187 782.521 268.387 777.721 270.84C773.028 273.187 767.801 274.36 762.041 274.36C755.215 274.36 749.188 272.867 743.961 269.88C738.735 266.787 734.681 262.36 731.801 256.6C728.921 250.84 727.481 244.067 727.481 236.28V184.12H754.681V232.6C754.681 238.573 756.228 243.213 759.321 246.52C762.415 249.827 766.575 251.48 771.801 251.48C777.135 251.48 781.348 249.827 784.441 246.52C787.535 243.213 789.081 238.573 789.081 232.6V184.12H816.441Z" 
stroke="white" 
stroke-width="5" 
mask="url(#path-1-outside-1_308_8)"/>
</svg>
